<svg width="805" height="287" viewBox="0 0 805 287" fill="none" xmlns="http://www.w3.org/2000/svg">
<mask id="mask0_0_7884" style="mask-type:alpha" maskUnits="userSpaceOnUse" x="0" y="0" width="805" height="287">
<rect width="805" height="287" rx="6" fill="#005692"/>
</mask>
<g mask="url(#mask0_0_7884)">
<path fill-rule="evenodd" clip-rule="evenodd" d="M300.19 153.757C308.33 77.4358 745.069 -69.8719 826.148 2.41792C907.227 74.7077 886.704 226.761 716.793 261.502C546.881 296.244 292.05 230.078 300.19 153.757Z" fill="#DDE3E9" fill-opacity="0.06"/>
<path fill-rule="evenodd" clip-rule="evenodd" d="M868.515 319.311C811.461 370.653 388.105 188.417 376.088 80.458C364.071 -27.5013 480.942 -126.913 630.567 -39.2241C780.192 48.4643 925.569 267.968 868.515 319.311Z" fill="#DDE3E9" fill-opacity="0.06"/>
<path d="M680.474 17.0064C663.177 14.1059 647.873 16.1225 633.685 23.1689C621.963 28.9905 610.803 38.4657 599.568 52.1344C590.129 63.621 581.52 76.9058 573.196 89.7542C563.411 104.853 553.295 120.469 541.969 132.843C521.524 155.185 513.299 173.92 517.521 188.525C521.183 201.2 534.052 210.642 555.774 216.583C577.626 222.562 603.468 223.609 621.299 223.436C642.209 223.233 664.107 221.199 679.876 217.994C695.152 214.89 714.692 209.831 730.334 198.16C740.441 190.619 748.841 180.434 755.3 167.886C758.107 162.434 760.502 156.642 762.47 150.55C764.589 143.99 766.215 137.084 767.329 129.88C769.308 117.087 768.327 104.054 764.414 91.1456C760.715 78.9379 754.584 67.3954 746.194 56.8416C729.394 35.7118 705.441 21.1924 680.474 17.0064ZM745.673 57.2557C754.01 67.7434 760.102 79.2127 763.776 91.34C767.66 104.152 768.633 117.086 766.669 129.781C764.531 143.601 760.506 156.32 754.709 167.584C748.296 180.039 739.96 190.147 729.936 197.628C721.774 203.717 708.693 211.461 679.744 217.344C664.012 220.54 642.162 222.571 621.292 222.773C603.503 222.945 577.726 221.9 555.948 215.943C534.466 210.065 521.752 200.779 518.157 188.342C516.494 182.583 516.808 176.162 519.088 169.104C522.498 158.548 530.305 146.571 542.459 133.293C553.822 120.877 563.955 105.238 573.754 90.1162C582.068 77.2833 590.667 64.0161 600.084 52.5571C611.412 38.7719 622.183 29.6226 633.982 23.7632C648.04 16.7818 663.211 14.7853 680.365 17.6626C705.171 21.82 728.975 36.2518 745.673 57.2557Z" fill="white" fill-opacity="0.1"/>
<path d="M636.89 31.4865C625.868 36.9428 615.404 45.8278 604.902 58.6481C596.125 69.3541 588.156 81.7374 580.448 93.7111C576.506 99.8361 572.43 106.167 568.319 112.158C567.114 113.916 565.928 115.61 564.795 117.193C559.964 123.944 555.479 129.553 551.077 134.347C527.798 159.739 521.406 180.023 532.079 194.64C537.83 202.487 548.471 208.598 563.705 212.807C578.968 217.06 598.915 219.321 621.385 219.349C642.267 219.377 664.286 217.445 680.285 214.184C694.588 211.273 712.886 206.533 727.541 195.613C741.214 185.429 751.601 169.966 757.718 151.03C759.686 144.94 761.212 138.486 762.265 131.738C764.112 119.927 763.257 107.891 759.724 95.9604C756.378 84.6633 750.794 73.9426 743.125 64.092C727.32 43.7772 704.59 29.8112 680.762 25.7744C664.536 23.0335 650.186 24.9019 636.89 31.4865ZM742.597 64.5013C750.216 74.2843 755.763 84.9325 759.083 96.1493C762.589 107.985 763.436 119.923 761.603 131.636C759.59 144.558 755.811 156.452 750.368 166.985C744.352 178.63 736.536 188.082 727.14 195.079C719.498 200.772 707.251 208.017 680.151 213.531C664.192 216.782 642.225 218.709 621.384 218.683C598.974 218.656 579.09 216.401 563.882 212.165C548.796 208 538.276 201.97 532.616 194.247C527.356 187.045 526.355 178.408 529.586 168.404C532.781 158.514 540.118 147.287 551.568 134.796C555.986 129.985 560.489 124.353 565.336 117.58C566.471 115.993 567.66 114.295 568.869 112.534C572.984 106.537 577.064 100.2 581.007 94.0711C588.703 82.1122 596.662 69.7465 605.416 59.0701C615.856 46.3233 626.248 37.4964 637.184 32.0823C650.352 25.5633 664.567 23.7144 680.646 26.4307C704.313 30.4389 726.892 44.3144 742.597 64.5013Z" fill="white" fill-opacity="0.1"/>
<path d="M640.091 39.8067C629.769 44.8977 620.003 53.1931 610.232 65.1642C602.113 75.0955 594.779 86.58 587.687 97.6861C583.982 103.487 580.151 109.485 576.275 115.154C575.152 116.799 574.048 118.379 572.994 119.855C568.512 126.13 564.323 131.362 560.188 135.85C548.862 148.174 541.733 159.298 538.99 168.915C536.481 177.717 537.579 185.478 542.254 191.983C547.548 199.291 557.433 205.025 571.635 209.027C589.774 214.137 610.979 215.228 625.576 215.242C645.071 215.261 665.674 213.441 680.69 210.369C694.022 207.653 711.075 203.229 724.74 193.064C737.544 183.547 747.269 169.092 752.984 151.396C754.801 145.772 756.215 139.817 757.192 133.592C758.935 122.572 758.149 111.338 754.854 100.201C751.73 89.6441 746.496 79.614 739.3 70.394C724.53 51.4241 703.296 38.3581 681.037 34.5443C665.893 31.9665 652.498 33.6872 640.091 39.8067ZM738.779 70.8031C745.923 79.9599 751.116 89.914 754.219 100.392C757.488 111.431 758.268 122.568 756.538 133.49C755.566 139.683 754.162 145.6 752.355 151.195C746.682 168.756 737.039 183.099 724.346 192.533C717.222 197.831 705.808 204.574 680.56 209.722C665.584 212.783 645.03 214.601 625.578 214.579C611.023 214.565 589.883 213.478 571.818 208.389C557.763 204.429 547.997 198.78 542.795 191.599C538.246 185.267 537.182 177.697 539.631 169.101C539.758 168.655 539.894 168.208 540.039 167.756C543.014 158.55 549.95 147.978 560.676 136.301C564.829 131.793 569.036 126.541 573.535 120.242C574.592 118.763 575.699 117.175 576.825 115.529C580.705 109.853 584.54 103.849 588.248 98.0446C595.331 86.954 602.655 75.4871 610.749 65.5848C620.458 53.6872 630.154 45.4505 640.387 40.4031C652.664 34.3486 665.925 32.6452 680.93 35.2012C703.025 38.9857 724.109 51.9634 738.779 70.8031Z" fill="white" fill-opacity="0.1"/>
<path d="M643.301 48.1255C633.682 52.8498 624.612 60.555 615.569 71.6784C608.104 80.8383 601.401 91.4299 594.918 101.673C591.455 107.145 587.874 112.802 584.236 118.145C583.198 119.67 582.174 121.139 581.197 122.512C577.061 128.316 573.169 133.169 569.301 137.35C558.785 148.766 552.143 159.056 549.555 167.931C547.177 176.084 548.147 183.281 552.438 189.327C557.25 196.108 566.379 201.462 579.576 205.246C596.482 210.095 616.209 211.123 629.78 211.134C647.886 211.15 667.073 209.438 681.109 206.555C693.467 204.031 709.278 199.927 721.955 190.515C733.891 181.665 742.951 168.219 748.267 151.763C749.934 146.605 751.233 141.147 752.136 135.447C755.354 115.402 749.445 94.5367 735.493 76.6952C728.887 68.2174 720.558 60.7178 711.406 55.0066C701.869 49.0543 691.751 45.1194 681.334 43.312C667.257 40.8953 654.818 42.4705 643.301 48.1255ZM711.053 55.5747C720.139 61.2438 728.408 68.6893 734.967 77.1073C748.802 94.8019 754.666 115.485 751.475 135.345C747.717 159.06 737.091 178.465 721.553 189.985C714.951 194.887 704.37 201.128 680.971 205.907C666.978 208.78 647.839 210.487 629.777 210.472C616.248 210.463 596.589 209.438 579.756 204.61C566.711 200.869 557.701 195.599 552.978 188.945C548.813 183.075 547.874 176.069 550.193 168.121C552.749 159.343 559.345 149.145 569.79 137.804C573.679 133.602 577.587 128.728 581.74 122.902C582.722 121.526 583.748 120.053 584.788 118.521C588.431 113.168 592.016 107.505 595.483 102.03C601.956 91.8045 608.648 81.2306 616.088 72.0997C625.067 61.0512 634.065 53.4041 643.597 48.7241C654.984 43.1319 667.291 41.5769 681.221 43.9718C691.549 45.7646 701.587 49.6687 711.053 55.5747Z" fill="white" fill-opacity="0.1"/>
<path d="M646.506 56.4455C637.591 60.8031 629.214 67.9174 620.904 78.1945C614.088 86.5908 608.009 96.2964 602.134 105.681C598.917 110.818 595.592 116.129 592.196 121.14C591.243 122.549 590.302 123.905 589.397 125.175C585.607 130.509 582.012 134.981 578.411 138.854C568.707 149.359 562.553 158.814 560.122 166.944C557.88 174.44 558.719 181.077 562.614 186.672C566.973 192.931 575.348 197.909 587.508 201.467C603.179 206.055 621.427 207.022 633.974 207.028C650.692 207.038 668.466 205.435 681.517 202.744C692.903 200.414 707.472 196.628 719.16 187.97C730.226 179.788 738.625 167.35 743.54 152.134C745.057 147.44 746.241 142.483 747.071 137.306C750.091 118.802 744.624 99.5163 731.676 83.0026C725.576 75.1844 717.883 68.2536 709.424 62.9641C700.598 57.4439 691.242 53.7836 681.616 52.0873C668.619 49.826 657.133 51.2529 646.506 56.4455ZM709.073 63.5237C717.466 68.7732 725.1 75.6479 731.154 83.4068C743.984 99.7731 749.406 118.876 746.414 137.196C742.923 158.99 733.102 176.832 718.765 187.433C712.682 191.94 702.933 197.679 681.385 202.091C668.371 204.776 650.651 206.373 633.975 206.363C621.471 206.359 603.29 205.394 587.695 200.829C575.685 197.315 567.431 192.422 563.162 186.29C559.389 180.87 558.581 174.424 560.76 167.131C563.162 159.097 569.266 149.733 578.9 139.303C582.521 135.41 586.132 130.914 589.94 125.558C590.847 124.284 591.79 122.923 592.747 121.511C596.148 116.49 599.477 111.173 602.698 106.033C608.566 96.6647 614.632 86.9761 621.421 78.6109C629.67 68.4093 637.972 61.3546 646.799 57.0406C657.294 51.9101 668.647 50.5034 681.502 52.7373C691.044 54.4204 700.318 58.0499 709.073 63.5237Z" fill="white" fill-opacity="0.1"/>
<path d="M649.727 64.7659C641.512 68.7561 633.834 75.2809 626.251 84.7102C620.08 92.3458 614.622 101.174 609.344 109.711C606.379 114.505 603.315 119.465 600.166 124.137C599.296 125.43 598.435 126.675 597.61 127.838C594.21 132.634 590.914 136.73 587.534 140.36C578.628 149.926 572.956 158.54 570.685 165.943C568.586 172.787 569.298 178.867 572.803 184.019C576.71 189.759 584.329 194.36 595.451 197.692C609.882 202.017 626.654 202.924 638.181 202.925C653.511 202.926 669.87 201.434 681.938 198.933C692.353 196.795 705.678 193.329 716.375 185.425C726.574 177.91 734.309 166.48 738.824 152.504C740.189 148.278 741.261 143.815 742.016 139.162C744.837 122.2 739.814 104.495 727.872 89.3054C722.279 82.1448 715.219 75.7862 707.456 70.917C699.343 65.8275 690.748 62.4433 681.915 60.8588C669.99 58.7578 659.461 60.0371 649.727 64.7659ZM707.103 71.476C714.802 76.3059 721.803 82.6104 727.35 89.7118C739.176 104.752 744.151 122.274 741.363 139.051C738.14 158.924 729.126 175.201 715.983 184.886C710.419 188.997 701.506 194.235 681.805 198.278C669.777 200.771 653.47 202.258 638.183 202.257C626.7 202.257 609.999 201.354 595.644 197.052C584.671 193.763 577.172 189.252 573.354 183.64C569.919 178.593 569.255 172.866 571.322 166.133C573.565 158.816 579.185 150.299 588.023 140.807C591.422 137.155 594.736 133.037 598.154 128.217C598.983 127.05 599.845 125.801 600.719 124.502C603.874 119.818 606.942 114.854 609.911 110.054C615.178 101.535 620.625 92.7269 626.77 85.1224C634.29 75.7707 641.894 69.3054 650.018 65.3582C659.622 60.6922 670.02 59.431 681.802 61.5046C690.55 63.0801 699.063 66.4335 707.103 71.476Z" fill="white" fill-opacity="0.1"/>
<path d="M652.946 73.0718C645.441 76.6972 638.457 82.6361 631.597 91.2297C626.063 98.1144 621.218 106.069 616.534 113.766C613.828 118.211 611.029 122.81 608.135 127.135C607.35 128.309 606.572 129.443 605.822 130.503C602.814 134.761 599.73 138.583 596.657 141.866C580.966 158.627 576.496 171.547 582.993 181.365C586.448 186.587 593.312 190.809 603.398 193.916C616.586 197.979 631.88 198.826 642.391 198.822C656.337 198.818 671.278 197.436 682.362 195.123C691.805 193.179 703.888 190.031 713.596 182.881C722.907 176.047 729.981 165.601 734.115 152.806C735.322 149.069 736.279 145.128 736.967 141.022C739.548 125.608 734.968 109.48 724.07 95.6105C718.956 89.1007 712.528 83.3123 705.484 78.866C698.071 74.1891 690.241 71.0823 682.217 69.6312C671.373 67.6694 661.8 68.7968 652.946 73.0718ZM705.127 79.4286C712.109 83.8334 718.478 89.5705 723.546 96.0212C734.325 109.741 738.857 125.685 736.309 140.911C735.626 144.987 734.678 148.894 733.48 152.603C729.39 165.264 722.396 175.596 713.201 182.345C708.155 186.062 700.075 190.797 682.225 194.473C671.183 196.777 656.292 198.156 642.39 198.157C623.431 198.164 610.828 195.511 603.594 193.281C593.66 190.221 586.917 186.089 583.55 180.998C580.518 176.413 579.974 171.105 581.949 164.992C584.077 158.402 589.132 150.879 597.144 142.319C600.238 139.015 603.341 135.169 606.366 130.886C607.12 129.821 607.9 128.682 608.689 127.503C611.59 123.165 614.393 118.561 617.102 114.11C621.776 106.433 626.609 98.4955 632.115 91.644C638.913 83.128 645.822 77.2487 653.236 73.6683C661.958 69.4555 671.398 68.3482 682.098 70.2819C690.037 71.7219 697.785 74.798 705.127 79.4286Z" fill="white" fill-opacity="0.1"/>
<path d="M656.173 81.3938C649.392 84.6453 643.1 89.9926 636.938 97.743C632.054 103.885 627.819 110.968 623.722 117.818C621.274 121.913 618.742 126.147 616.102 130.126C615.4 131.187 614.703 132.207 614.032 133.16C611.366 136.949 608.587 140.383 605.777 143.364C598.383 151.208 593.823 157.943 591.836 163.955C589.977 169.565 590.422 174.387 593.178 178.703C596.224 183.474 602.166 187.212 611.336 190.133C617.926 192.231 629.393 194.727 646.593 194.711C659.151 194.702 672.677 193.429 682.776 191.305C691.246 189.554 702.085 186.723 710.805 180.326C719.245 174.161 725.658 164.719 729.394 153.155C730.449 149.889 731.292 146.449 731.904 142.87C734.28 128.999 730.142 114.451 720.255 101.905C715.643 96.0531 709.852 90.8335 703.502 86.8096C696.799 82.5599 689.734 79.7305 682.503 78.3933C672.751 76.5937 664.135 77.5735 656.173 81.3938ZM703.152 87.3742C709.438 91.3587 715.172 96.5249 719.737 102.319C729.504 114.715 733.595 129.078 731.252 142.759C728.499 158.837 721.099 171.989 710.414 179.792C705.888 183.113 698.642 187.348 682.641 190.656C672.582 192.772 659.106 194.038 646.593 194.047C629.476 194.065 618.082 191.583 611.538 189.499C602.647 186.669 596.656 182.915 593.738 178.346C591.122 174.253 590.69 169.667 592.414 164.328C592.432 164.273 592.45 164.218 592.468 164.164C594.423 158.247 598.935 151.591 606.261 143.821C609.092 140.816 611.891 137.358 614.574 133.542C615.249 132.586 615.948 131.559 616.654 130.493C619.301 126.499 621.838 122.261 624.289 118.16C628.375 111.329 632.6 104.264 637.456 98.1573C643.554 90.4887 649.768 85.2025 656.457 81.9932C664.288 78.2378 672.771 77.2754 682.385 79.0517C689.537 80.3722 696.522 83.1715 703.152 87.3742Z" fill="white" fill-opacity="0.1"/>
<path d="M642.282 104.253C638.023 109.658 634.387 115.889 630.869 121.915C628.693 125.644 626.442 129.498 624.07 133.114C623.453 134.056 622.838 134.966 622.243 135.814C619.915 139.14 617.444 142.184 614.9 144.86C602.199 158.218 598.536 168.124 603.365 176.039C605.959 180.287 611.164 183.659 619.28 186.348C625.176 188.302 635.431 190.625 650.802 190.6C661.878 190.585 673.991 189.421 683.202 187.488C690.731 185.908 700.356 183.375 708.024 177.776C715.596 172.281 721.349 163.842 724.687 153.509C725.591 150.713 726.318 147.776 726.855 144.724C729.026 132.396 725.333 119.427 716.455 108.205C712.345 103.012 707.187 98.3627 701.537 94.7606C695.545 90.9408 689.243 88.3833 682.807 87.1634C666.745 84.1148 653.866 89.5462 642.282 104.253ZM715.936 108.615C724.692 119.686 728.339 132.468 726.201 144.606C723.708 158.768 717.114 170.356 707.635 177.236C703.659 180.138 697.275 183.851 683.066 186.834C673.897 188.76 661.835 189.917 650.804 189.932C635.521 189.958 625.34 187.651 619.491 185.715C611.531 183.079 606.442 179.8 603.935 175.69C599.284 168.072 602.923 158.421 615.384 145.317C617.951 142.618 620.443 139.548 622.79 136.196C623.39 135.342 624.009 134.426 624.627 133.478C627.009 129.846 629.263 125.984 631.445 122.251C634.951 116.243 638.578 110.033 642.806 104.664C654.219 90.1751 666.892 84.8212 682.685 87.8134C695.057 90.1591 707.488 97.9359 715.936 108.615Z" fill="white" fill-opacity="0.1"/>
<path d="M647.631 110.759C643.988 115.439 640.94 120.831 637.993 126.045C636.098 129.394 634.141 132.858 632.043 136.1C631.511 136.927 630.976 137.723 630.459 138.466C628.463 141.336 626.3 143.988 624.028 146.351C612.927 157.897 609.6 166.482 613.556 173.368C615.697 177.096 620.169 180.101 627.226 182.558C634.573 185.115 644.442 186.508 655.014 186.481C664.694 186.46 675.391 185.407 683.628 183.662C690.595 182.185 698.612 180.026 705.247 175.216C711.95 170.391 717.044 162.954 719.984 153.853C720.735 151.529 721.347 149.093 721.807 146.568C723.773 135.783 720.524 124.394 712.655 114.496C705.119 105.012 694.074 98.0692 683.11 95.9221C668.941 93.1475 657.668 97.8612 647.631 110.759ZM712.135 114.91C719.882 124.657 723.085 135.859 721.153 146.45C720.698 148.949 720.096 151.353 719.353 153.652C716.457 162.616 711.447 169.937 704.859 174.679C698.324 179.418 690.392 181.551 683.493 183.013C675.298 184.749 664.655 185.798 655.016 185.818C644.517 185.845 634.726 184.464 627.447 181.931C620.549 179.53 616.193 176.621 614.135 173.038C611.751 168.891 610.233 161.659 624.509 146.814C626.807 144.424 628.993 141.744 631.006 138.848C631.528 138.099 632.066 137.297 632.604 136.463C634.712 133.203 636.674 129.732 638.573 126.375C641.508 121.182 644.546 115.81 648.157 111.169C658.023 98.4928 669.09 93.8546 682.985 96.5757C693.796 98.692 704.693 105.545 712.135 114.91Z" fill="white" fill-opacity="0.1"/>
<path d="M665.844 106.317C661.189 108.457 656.984 112.038 652.984 117.262C649.947 121.229 647.475 125.796 645.085 130.215C643.485 133.172 641.831 136.229 640.022 139.082C639.575 139.79 639.124 140.473 638.682 141.113C637.016 143.53 635.16 145.792 633.162 147.839C623.524 157.713 620.623 164.761 623.754 170.691C625.45 173.903 629.188 176.542 635.179 178.764C641.53 181.119 650.074 182.396 659.235 182.362C667.522 182.336 676.802 181.391 684.062 179.836C689.632 178.641 696.758 176.746 702.476 172.655C708.319 168.474 712.758 162.035 715.297 154.176C715.894 152.328 716.385 150.405 716.766 148.411C718.53 139.173 715.722 129.36 708.864 120.783C702.334 112.616 692.824 106.596 683.423 104.676C676.89 103.344 671.142 103.881 665.844 106.317ZM708.341 121.198C711.667 125.356 714.03 129.769 715.364 134.312C716.736 138.982 716.986 143.685 716.109 148.288C714.143 158.591 709.163 167.051 702.087 172.115C699.137 174.227 694.404 176.938 683.92 179.187C676.704 180.736 667.475 181.673 659.23 181.699C650.146 181.732 641.685 180.468 635.406 178.141C629.574 175.98 625.953 173.441 624.338 170.381C623.041 167.924 622.856 165.245 623.839 162.204C625.109 158.271 628.334 153.738 633.636 148.304C635.659 146.231 637.54 143.939 639.228 141.492C639.674 140.844 640.13 140.153 640.583 139.438C642.405 136.566 644.064 133.497 645.67 130.532C648.047 126.137 650.506 121.594 653.512 117.668C661.831 106.802 671.292 102.884 683.286 105.331C692.539 107.216 701.905 113.15 708.341 121.198Z" fill="white" fill-opacity="0.1"/>
<path d="M658.344 123.758C655.895 127.029 653.988 130.791 652.145 134.429C650.854 136.976 649.519 139.609 648.006 142.057C647.643 142.648 647.274 143.218 646.908 143.754C645.564 145.73 644.014 147.603 642.302 149.318C634.162 157.482 631.663 163.069 633.952 168.001C635.206 170.702 638.208 172.978 643.131 174.96C648.475 177.11 655.693 178.273 663.458 178.234C670.357 178.203 678.223 177.368 684.5 176C689.383 174.937 695.009 173.401 699.708 170.087C704.691 166.571 708.475 161.136 710.614 154.514C711.058 153.142 711.431 151.718 711.729 150.25C713.314 142.443 711.014 134.428 705.074 127.064C699.552 120.218 691.577 115.119 683.74 113.428C673.507 111.221 665.201 114.6 658.344 123.758ZM704.555 127.481C710.364 134.686 712.619 142.512 711.075 150.118C709.373 158.501 705.2 165.399 699.324 169.546C694.721 172.793 689.175 174.304 684.358 175.353C678.123 176.711 670.31 177.541 663.456 177.571C655.775 177.61 648.646 176.464 643.381 174.344C638.622 172.43 635.736 170.263 634.557 167.721C632.405 163.086 634.862 157.722 642.775 149.787C644.515 148.042 646.092 146.136 647.46 144.128C647.832 143.585 648.207 143.005 648.573 142.406C650.098 139.934 651.442 137.29 652.739 134.73C654.57 131.116 656.466 127.381 658.879 124.157C662.095 119.863 665.522 116.939 669.358 115.221C673.632 113.307 678.29 112.932 683.6 114.077C691.291 115.737 699.125 120.748 704.555 127.481Z" fill="white" fill-opacity="0.1"/>
<path d="M663.718 130.248C661.842 132.84 660.481 135.821 659.165 138.703C658.2 140.82 657.2 143.007 656.004 145.029C655.724 145.504 655.437 145.961 655.15 146.39C654.104 147.955 652.898 149.395 651.46 150.791C644.75 157.303 642.705 161.37 644.165 165.297C644.985 167.502 647.252 169.415 651.098 171.151C655.416 173.101 661.312 174.148 667.698 174.104C673.214 174.069 679.665 173.342 684.954 172.164C688.801 171.306 693.237 170.082 696.954 167.517C701.081 164.668 704.215 160.235 705.952 154.858C706.242 153.96 706.494 153.035 706.703 152.085C708.087 145.849 706.217 139.367 701.297 133.339C696.784 127.81 690.343 123.636 684.069 122.173C675.717 120.224 669.06 122.866 663.718 130.248ZM700.783 133.757C705.569 139.621 707.392 145.908 706.054 151.939C704.621 158.401 701.254 163.736 696.574 166.968C692.953 169.468 688.593 170.668 684.808 171.513C679.563 172.683 673.164 173.403 667.692 173.438C661.399 173.482 655.602 172.455 651.368 170.545C647.693 168.887 645.541 167.095 644.785 165.065C643.433 161.43 645.435 157.562 651.92 151.269C653.393 149.839 654.628 148.366 655.7 146.761C655.996 146.323 656.289 145.854 656.574 145.369C657.788 143.318 658.794 141.114 659.769 138.982C661.073 136.129 662.419 133.18 664.255 130.641C669.424 123.499 675.855 120.942 683.918 122.82C690.054 124.248 696.36 128.337 700.783 133.757Z" fill="white" fill-opacity="0.1"/>
<path d="M669.118 136.731C667.789 138.675 666.951 140.908 666.142 143.068C665.521 144.721 664.881 146.429 664.027 147.99C663.823 148.362 663.625 148.696 663.417 149.013C662.677 150.16 661.769 151.217 660.645 152.247C655.828 156.661 653.664 159.33 654.4 162.56C654.792 164.287 656.324 165.846 659.08 167.32C662.35 169.071 666.926 170.007 671.964 169.955C677.944 169.898 683.376 168.784 685.434 168.308C688.246 167.658 691.488 166.747 694.222 164.929C697.509 162.744 699.998 159.327 701.328 155.21C701.466 154.784 701.592 154.35 701.705 153.907C702.895 149.243 701.457 144.295 697.549 139.596C694.845 136.344 689.979 132.355 684.433 130.901C678.058 129.233 672.905 131.194 669.118 136.731ZM697.04 140.023C700.862 144.615 702.214 149.232 701.063 153.744C699.904 158.283 697.346 162.058 693.856 164.377C691.21 166.136 688.038 167.025 685.285 167.661C683.248 168.133 677.872 169.234 671.957 169.291C667.029 169.343 662.567 168.435 659.394 166.737C656.853 165.376 655.392 163.924 655.05 162.416C654.852 161.549 654.888 160.724 655.161 159.881C655.806 157.884 657.777 155.782 661.096 152.739C662.261 151.67 663.203 150.572 663.975 149.378C664.189 149.048 664.397 148.699 664.611 148.311C665.489 146.709 666.137 144.978 666.764 143.304C667.559 141.181 668.383 138.985 669.667 137.109C673.278 131.827 678.19 129.958 684.266 131.548C689.661 132.958 694.402 136.851 697.04 140.023Z" fill="white" fill-opacity="0.1"/>
<path d="M674.573 143.214C673.767 144.534 673.438 146.051 673.12 147.518C672.867 148.682 672.606 149.888 672.106 150.958C671.991 151.206 671.874 151.426 671.745 151.638C671.283 152.395 670.699 153.049 669.902 153.693C669.408 154.092 668.952 154.45 668.51 154.796C666.26 156.557 664.773 157.718 664.704 159.778C664.662 161.019 665.518 162.332 667.11 163.475C669.905 165.477 673.647 165.846 676.292 165.804C680.198 165.745 684.038 164.929 685.98 164.448C687.745 164.01 689.787 163.419 691.551 162.342C693.895 160.911 695.648 158.692 696.761 155.751C696.805 155.638 696.844 155.524 696.881 155.408C697.825 152.486 696.809 149.272 693.861 145.849C691.939 143.617 688.565 140.813 684.866 139.632C680.429 138.215 676.868 139.454 674.573 143.214ZM693.358 146.28C696.253 149.64 697.188 152.741 696.139 155.513C695.079 158.312 693.418 160.419 691.204 161.772C689.518 162.801 687.538 163.375 685.822 163.799C683.908 164.273 680.123 165.076 676.283 165.134C673.736 165.176 670.144 164.826 667.498 162.93C666.091 161.921 665.335 160.809 665.369 159.797C665.427 158.046 666.743 157.02 668.919 155.315C669.365 154.968 669.823 154.608 670.321 154.206C671.179 153.512 671.81 152.805 672.312 151.98C672.454 151.749 672.584 151.506 672.709 151.235C673.239 150.097 673.508 148.854 673.769 147.656C674.091 146.178 674.393 144.781 675.14 143.557C677.287 140.038 680.493 138.932 684.665 140.261C688.232 141.401 691.495 144.118 693.358 146.28Z" fill="white" fill-opacity="0.1"/>
<path d="M680.2 149.771C679.875 150.53 680.05 151.388 680.22 152.216C680.355 152.874 680.482 153.495 680.357 154.014C680.33 154.124 680.294 154.224 680.247 154.318C679.802 155.197 678.968 155.349 678.003 155.524C677.038 155.701 675.942 155.899 675.251 156.95C674.734 157.737 674.743 158.833 675.279 159.611C676.282 161.069 678.142 161.77 680.808 161.693C682.5 161.644 684.491 161.285 686.72 160.627C689.542 159.792 691.213 158.851 691.981 157.664C692.125 157.441 692.235 157.208 692.312 156.97C692.754 155.602 692.097 153.981 690.349 152.135C689.951 151.715 687.849 149.564 685.512 148.416C684.109 147.727 682.918 147.557 681.969 147.907C681.199 148.199 680.604 148.824 680.2 149.771ZM685.22 149.016C686.955 149.867 688.808 151.476 689.869 152.595C691.709 154.535 692.219 156.078 691.424 157.305C690.758 158.336 689.159 159.214 686.535 159.99C684.359 160.633 682.428 160.982 680.792 161.029C678.366 161.1 676.696 160.495 675.829 159.235C675.531 158.801 675.462 158.208 675.625 157.704C675.669 157.567 675.73 157.435 675.808 157.316C676.343 156.504 677.209 156.346 678.125 156.178C679.12 155.997 680.251 155.791 680.842 154.618C680.913 154.477 680.968 154.328 681.006 154.168C681.164 153.506 681.015 152.783 680.874 152.083C680.717 151.319 680.57 150.599 680.812 150.03C681.142 149.256 681.609 148.753 682.204 148.533C682.972 148.247 683.988 148.41 685.22 149.016Z" fill="white" fill-opacity="0.1"/>
</g>
</svg>
