<svg width="28" height="27" viewBox="0 0 28 27" fill="none" xmlns="http://www.w3.org/2000/svg">
<path fill-rule="evenodd" clip-rule="evenodd" d="M19.7882 12.761C19.9647 12.9906 20.0308 13.2662 19.9868 13.5878L19.1484 18.5944C19.1189 18.8547 19.0049 19.069 18.8064 19.2374C18.6078 19.4058 18.3835 19.4901 18.1334 19.4901H5.9099L5.6672 20.9139H17.3171C17.5965 20.9139 17.8391 21.0173 18.0452 21.224C18.2511 21.4307 18.354 21.6871 18.354 21.9933C18.354 22.2996 18.2511 22.556 18.0452 22.7627C17.8391 22.9694 17.5965 23.0727 17.3171 23.0727H4.43161C4.12271 23.0727 3.85795 22.9426 3.6373 22.6824C3.43137 22.4221 3.35047 22.1235 3.3946 21.7868L3.9462 18.6634L3.10777 9.89031L0.724846 9.10947C0.445368 9.0176 0.243114 8.84149 0.118084 8.58125C-0.00694611 8.32093 -0.0326875 8.04538 0.0408594 7.75447C0.129116 7.46357 0.301951 7.25305 0.559365 7.12291C0.81678 6.99277 1.07787 6.96598 1.34264 7.04253L4.38748 8.05303C4.57871 8.11428 4.73683 8.2291 4.86186 8.39752C4.98689 8.56594 5.06412 8.75736 5.09353 8.97171L5.27005 10.7171L19.0822 12.3247C19.3911 12.3706 19.6264 12.516 19.7882 12.761ZM5.9982 23.6699C6.43948 23.6699 6.81457 23.8306 7.12347 24.1522C7.43236 24.4736 7.58681 24.8642 7.58681 25.3235C7.58681 25.7827 7.43236 26.1771 7.12347 26.5062C6.81457 26.8354 6.43948 27 5.9982 27C5.55692 27 5.18183 26.8354 4.87293 26.5062C4.56403 26.1771 4.40958 25.7828 4.40958 25.3235C4.40958 24.8642 4.56403 24.4737 4.87293 24.1522C5.18179 23.8306 5.55688 23.6699 5.9982 23.6699ZM16.5448 24.1522C16.2359 23.8306 15.8607 23.6699 15.4195 23.6699C14.9782 23.6699 14.6032 23.8306 14.2943 24.1522C13.9853 24.4737 13.8308 24.8642 13.8308 25.3235C13.8308 25.7828 13.9854 26.1771 14.2943 26.5062C14.6031 26.8354 14.9782 27 15.4195 27C15.8607 27 16.2359 26.8354 16.5448 26.5062C16.8537 26.1771 17.0082 25.7827 17.0082 25.3235C17.0082 24.8642 16.8536 24.4736 16.5448 24.1522Z" fill="#02131F"/>
<path fill-rule="evenodd" clip-rule="evenodd" d="M19 18C23.9706 18 28 13.9706 28 9C28 4.02944 23.9706 0 19 0C14.0294 0 10 4.02944 10 9C10 13.9706 14.0294 18 19 18Z" fill="#6AB8EE"/>
<path d="M16.9035 13L19.9184 7.03409V6.98438H16.4063V5.72727H21.5093V7.00213L18.4909 13H16.9035Z" fill="white"/>
</svg>
