<svg width="20" height="15" viewBox="0 0 20 15" fill="none" xmlns="http://www.w3.org/2000/svg">
<path fill-rule="evenodd" clip-rule="evenodd" d="M0.769265 1.66667H19.2307C19.6922 1.66667 20 1.33337 20 0.833333C20 0.333295 19.6923 0 19.2307 0H0.769265C0.307671 9.57744e-05 0 0.333391 0 0.833333C0 1.33328 0.307671 1.66667 0.769265 1.66667ZM19.2307 6.66667H0.769265C0.307759 6.66667 0 6.99996 0 7.5C0 8.00004 0.307671 8.33333 0.769265 8.33333H19.2307C19.6922 8.33333 20 8.00004 20 7.5C20 6.99996 19.6922 6.66667 19.2307 6.66667ZM0.769265 13.3333H19.2307C19.6922 13.3333 20 13.6666 20 14.1667C20 14.6667 19.6922 15 19.2307 15H0.769265C0.307671 15 0 14.6667 0 14.1667C0 13.6666 0.307759 13.3333 0.769265 13.3333Z" fill="#6AB8EE"/>
</svg>
